<?xml version="1.0" encoding="utf-8"?>
<!-- Generator: Adobe Illustrator 24.2.1, SVG Export Plug-In . SVG Version: 6.00 Build 0)  -->
<svg version="1.1" id="Layer_1" xmlns="http://www.w3.org/2000/svg" xmlns:xlink="http://www.w3.org/1999/xlink" x="0px" y="0px"
	 viewBox="0 0 254.3 65.1" style="enable-background:new 0 0 254.3 65.1;" xml:space="preserve">
<style type="text/css">
	.st0{fill:#041E42;}
	.st1{fill:none;stroke:#041E42;stroke-width:0.75;stroke-miterlimit:10;}
</style>
<g id="Layer_2_1_">
	<g id="Layer_1-2">
		<path class="st0" d="M54.2,17.5l-9.5-6.1V9.8l9.5-6.9v2.8l-7.2,4.9l7.2,4.3V17.5z"/>
		<path class="st0" d="M62.8,0l-5.3,20.7h-2.2L60.6,0H62.8z"/>
		<path class="st0" d="M63.9,14.8l7.1-4.3l-7.1-4.9V2.9l9.5,6.9v1.7l-9.5,6.1V14.8z"/>
		<path class="st0" d="M7.5,60.2v-38h0.8l25.3,29.1V22.2h3.7v38h-0.8L11.4,31.4v28.8H7.5z"/>
		<path class="st0" d="M59.2,31.4c4.1-0.1,8,1.6,10.8,4.7c5.2,5.8,5.1,14.7-0.2,20.4c-2.7,2.9-6.5,4.5-10.5,4.4
			c-4,0.1-7.9-1.5-10.6-4.4c-5.4-5.7-5.5-14.6-0.2-20.4C51.2,33,55.1,31.3,59.2,31.4z M59.2,34.9c-2.9,0-5.7,1.2-7.7,3.3
			c-2.1,2.1-3.3,5-3.2,8.1c0,2,0.5,4,1.5,5.7c0.9,1.7,2.3,3.1,4,4.1c3.4,1.9,7.6,1.9,11,0c1.7-1,3.1-2.4,4-4.1
			c1-1.7,1.5-3.7,1.5-5.7c0.1-3-1.1-5.9-3.2-8.1C65,36.1,62.2,34.9,59.2,34.9L59.2,34.9z"/>
		<path class="st0" d="M83.7,21.7h3.6v10.4h5.7v3.1h-5.7v25h-3.6v-25h-4.9v-3.1h4.9V21.7z"/>
		<path class="st0" d="M122.1,50.9l3.1,1.6c-0.9,1.8-2,3.4-3.5,4.8c-1.3,1.2-2.8,2.1-4.4,2.8c-1.8,0.7-3.7,1-5.6,0.9
			c-4.6,0-8.2-1.5-10.8-4.5c-2.5-2.8-3.9-6.4-3.9-10.2c0-3.5,1.1-6.8,3.3-9.5c2.6-3.5,6.8-5.5,11.1-5.3c4.5-0.2,8.7,1.9,11.5,5.4
			c2.1,2.8,3.2,6.1,3.1,9.6h-25.3c0,3,1.1,5.8,3.1,8c1.9,2.1,4.7,3.2,7.5,3.1c1.4,0,2.8-0.3,4.2-0.8c1.3-0.4,2.4-1.1,3.4-2
			C120.3,53.6,121.3,52.3,122.1,50.9z M122.1,43.3c-0.4-1.7-1.1-3.2-2.1-4.6c-1-1.2-2.2-2.2-3.7-2.8c-1.5-0.7-3.1-1.1-4.8-1.1
			c-2.6,0-5.2,0.9-7.1,2.7c-1.6,1.6-2.8,3.6-3.3,5.8H122.1z"/>
		<path class="st0" d="M160.8,32.1v28.1h-3.6v-4.8c-1.4,1.7-3.1,3.2-5.1,4.2c-1.9,0.9-4,1.4-6.2,1.4c-3.8,0.1-7.5-1.5-10.2-4.3
			c-2.8-2.8-4.3-6.6-4.2-10.5c-0.1-3.9,1.5-7.6,4.3-10.4c2.7-2.8,6.4-4.4,10.2-4.3c2.2,0,4.3,0.5,6.3,1.5c2,1.1,3.6,2.6,4.9,4.4
			v-5.2H160.8z M146.4,34.9c-4,0-7.7,2.1-9.6,5.7c-2,3.5-2,7.8,0,11.3c1,1.7,2.4,3.2,4.1,4.2c1.7,1,3.6,1.5,5.5,1.5
			c2,0,3.9-0.5,5.6-1.5c1.7-0.9,3.1-2.3,4.1-4c1-1.8,1.5-3.7,1.4-5.8c0.1-3-1.1-6-3.2-8.2C152.2,36,149.4,34.8,146.4,34.9z"/>
		<path class="st0" d="M169.2,60.2V21.2h3.6v15.7c1.4-1.7,3.1-3.2,5.1-4.2c5.5-2.6,12.1-1.5,16.3,2.9c2.8,2.8,4.3,6.6,4.2,10.5
			c0.1,3.9-1.5,7.7-4.3,10.4c-2.7,2.8-6.3,4.3-10.2,4.3c-2.2,0-4.3-0.5-6.2-1.5c-2-1.1-3.7-2.6-5-4.4v5.2L169.2,60.2z M183.7,57.4
			c4,0,7.7-2.1,9.6-5.7c2-3.5,2-7.9,0-11.4c-1-1.7-2.4-3.2-4.1-4.2c-1.7-1-3.5-1.5-5.5-1.5c-2,0-3.9,0.5-5.6,1.5
			c-1.7,1-3.1,2.4-4.1,4.1c-1,1.8-1.5,3.8-1.4,5.8c-0.1,3,1.1,6,3.2,8.2C177.8,56.3,180.7,57.5,183.7,57.4z"/>
		<path class="st0" d="M204.5,21.2h3.6v38.9h-3.6V21.2z"/>
		<path class="st0" d="M239.3,50.9l3,1.6c-0.9,1.8-2,3.4-3.5,4.8c-1.3,1.2-2.8,2.1-4.4,2.8c-1.8,0.7-3.7,1-5.6,0.9
			c-4.6,0-8.2-1.5-10.8-4.5c-4.9-5.6-5.2-13.9-0.6-19.7c2.6-3.5,6.8-5.5,11.1-5.3c4.5-0.1,8.8,1.9,11.5,5.4c2.1,2.8,3.2,6.1,3.1,9.6
			H218c0,3,1.1,5.8,3.1,8c1.9,2.1,4.7,3.2,7.5,3.1c1.4,0,2.8-0.3,4.2-0.8c1.3-0.4,2.4-1.1,3.4-2C237.4,53.7,238.5,52.3,239.3,50.9z
			 M239.3,43.3c-0.4-1.7-1.1-3.2-2.1-4.6c-1-1.2-2.2-2.2-3.7-2.8c-1.5-0.7-3.1-1.1-4.8-1.1c-2.6,0-5.2,0.9-7.1,2.7
			c-1.6,1.6-2.8,3.6-3.3,5.8H239.3z"/>
		<path class="st0" d="M37.5,10.7h-33c-1.8,0-3.2,1.4-3.2,3.2v46.8c0,1.8,1.4,3.2,3.2,3.2h33v1.3h-33c-2.5,0-4.5-2-4.5-4.4
			c0,0,0,0,0,0V13.9c0-2.5,2-4.4,4.4-4.4h33"/>
		<path class="st0" d="M9.4,19.8c-1.9,0-3.4-1.5-3.4-3.4S7.5,13,9.4,13s3.4,1.5,3.4,3.4c0,0,0,0,0,0C12.8,18.3,11.3,19.8,9.4,19.8z
			 M9.4,14.2c-1.2,0-2.2,1-2.2,2.2c0,1.2,1,2.2,2.2,2.2c1.2,0,2.2-1,2.2-2.2c0,0,0,0,0,0C11.7,15.2,10.7,14.2,9.4,14.2z"/>
		<rect x="8" y="6" class="st0" width="1.2" height="10.9"/>
		<rect x="9.7" y="6" class="st0" width="1.2" height="10.9"/>
		<path class="st0" d="M18.4,19.8c-1.9,0-3.4-1.5-3.4-3.4c0-1.9,1.5-3.4,3.4-3.4c1.9,0,3.4,1.5,3.4,3.4c0,0,0,0,0,0
			C21.8,18.3,20.3,19.8,18.4,19.8z M18.4,14.2c-1.2,0-2.2,1-2.2,2.2s1,2.2,2.2,2.2c1.2,0,2.2-1,2.2-2.2c0,0,0,0,0,0
			C20.6,15.2,19.7,14.2,18.4,14.2z"/>
		<rect x="17" y="6" class="st0" width="1.2" height="10.9"/>
		<rect x="18.7" y="6" class="st0" width="1.2" height="10.9"/>
		<circle class="st1" cx="245" cy="18.7" r="8.9"/>
	</g>
</g>
<g>
	<path class="st0" d="M239.2,15.9v-0.6h3.6v0.6h-1.5v6h-0.7v-6H239.2z"/>
	<path class="st0" d="M243.5,21.9l0.9-6.6h0.1l2.7,5.4l2.7-5.4h0.1l0.9,6.6h-0.6l-0.6-4.7l-2.3,4.7h-0.2l-2.4-4.8l-0.6,4.8H243.5z"
		/>
</g>
</svg>
